<svg width="210" height="40" viewBox="0 0 210 40" fill="none" xmlns="http://www.w3.org/2000/svg">
<path d="M43.68 33.12V7.43999H48.48V17.52C49.44 16.56 50.56 15.76 51.84 15.12C53.12 14.48 54.48 14.16 55.92 14.16C57.8829 14.1563 59.8053 14.7434 61.429 15.8458C63.0527 16.9482 64.3015 18.5133 64.98 20.34C65.6585 22.1667 65.739 24.1654 65.2116 26.046C64.6842 27.9267 63.5755 29.6059 62.04 30.84C60.5045 32.0741 58.6256 32.8015 56.653 32.913C54.6804 33.0245 52.7193 32.5153 50.9881 31.4518C49.2569 30.3882 47.8344 28.8251 46.88 27V33.12H43.68ZM55.68 29.52C56.96 29.52 58.0533 29.1467 58.96 28.4C59.8667 27.6533 60.32 26.56 60.32 25.12C60.32 23.68 59.8667 22.5867 58.96 21.84C58.0533 21.0933 56.96 20.72 55.68 20.72C54.4 20.72 53.3067 21.0933 52.4 21.84C51.4933 22.5867 51.04 23.68 51.04 25.12C51.04 26.56 51.4933 27.6533 52.4 28.4C53.3067 29.1467 54.4 29.52 55.68 29.52Z" fill="#1A1A1A"/>
<path d="M0 26.64V7.43999H3.2V23.52H12.96V26.64H0Z" fill="#1A1A1A"/>
<path d="M22.0848 7.43999L22.0816 26.64H18.8848L18.8816 7.43999H22.0848Z" fill="#1A1A1A"/>
<path d="M34.56 7.43999V26.64H31.36V7.43999H34.56Z" fill="#1A1A1A"/>
<path d="M72.48 7.43999V26.64H69.28V7.43999H72.48Z" fill="#1A1A1A"/>
<path d="M84.96 7.43999V26.64H81.76V7.4_3999H84.96Z" fill="#1A1A1A"/>
<path d="M96.5195 26.64H93.3195V14.16H90.1195V26.64H86.9195V7.43999H90.1195V11.04H93.3195V7.43999H96.5195V26.64Z" fill="#1A1A1A"/>
<path d="M107.078 26.88C105.838 26.88 104.758 26.5467 103.838 25.88C102.918 25.2133 102.318 24.32 102.038 23.2H105.158C105.278 23.8267 105.678 24.2667 106.358 24.52C107.038 24.7733 107.758 24.9 108.518 24.9C109.598 24.9 110.438 24.6333 111.038Joining 24.1C111.638 23.5667 111.938 22.88 111.938 22.04C111.938 21.2 111.638 20.5333 111.038 20.04C110.438 19.5467 109.558 19.3 108.398 19.3H106.598V16.8H108.278C109.278 16.8 110.038 16.54 110.558 16.02C111.078 15.5 111.338 14.82 111.338 13.98C111.338 13.0267 111.025 12.2467 110.398 11.64C109.772 11.0333 108.938 10.73 107.898 10.73C106.858 10.73 106.012 11.0133 105.358 11.58C104.705 12.1467 104.318 12.8733 104.198 13.76H101.078C101.238 12.16 101.838 10.8867 102.878 9.94C103.918 8.99333 105.298 8.52 107.018 8.52C108.198 8.52 109.212 8.76 110.058 9.24C110.905 9.72 111.558 10.3867 112.018 11.24C112.478 12.0933 112.718 13.02 112.718 14.02C112.718 14.7 112.598 15.3 112.358 15.82C112.118 16.34 111.758 16.7467 111.278 17.04C111.758 17.3333 112.158 17.7267 112.478 18.22C112.798 18.7133 113.018 19.2867 113.138 19.94L113.558 22.28C113.558 23.4133 113.218 24.4467 112.538 25.38C111.858 26.3133 110.878 26.96 109.598 27.32C108.318 27.68 107.078 27.86 105.878 27.86C107.078 26.88 107.078 26.88 107.078 26.88Z" fill="#1A1A1A"/>
<path d="M124.96 26.64V7.43999H121.76V26.64H124.96Z" fill="#1A1A1A"/>
<path d="M136.64 26.64V7.43999H133.44V26.64H136.64Z" fill="#1A1A1A"/>
<path d="M149.28 26.88C147.419 26.8837 145.614 26.2999 144.145 25.2156C142.677 24.1312 141.621 22.5998 141.12 20.86L144.24 20.08C144.48 20.96 144.96 21.6533 145.68 22.16C146.4 22.6667 147.24 22.92 148.2 22.92C149.48 22.92 150.473 22.5267 151.18 21.74C151.887 20.9533 152.24 19.88 152.24 18.52V17.28H152.12C151.64 17.92 150.973 18.44 150.12 18.84C149.267 19.24 148.34 19.44 147.34 19.44C145.819 19.4437 144.338 18.9999 143.095 18.1656C141.852 17.3312 140.901 16.1498 140.36 14.78C139.819 13.4102 139.714 11.9146 140.06 10.483C140.406 9.05146 141.188 7.75333 142.301 6.78657C143.413 5.81981 144.806 5.23438 146.262 5.11183C147.718 4.98928 149.168 5.33582 150.428 6.10399C151.688 6.87216 152.697 8.02129 153.32 9.38L153.44 9.68V8.96H150.12V5.84H156.4V26.64H153.2V23.6C152.88 24.4133 152.34 25.1067 151.58 25.68C150.82 26.2533 149.94 26.64 148.94 26.84L149.28 26.88ZM147.88 16.2C148.553 16.2 149.187 16.02 149.78 15.66C150.373 15.3 150.84 14.7867 151.18 14.12C151.52 13.4533 151.693 12.7067 151.693 11.88C151.693 11.0533 151.52 10.3067 151.18 9.64C150.84 8.97333 150.373 8.46 149.78 8.1C149.187 7.74 148.553 7.56 147.88 7.56C147.207 7.56 146.573 7.74 145.98 8.1C145.387 8.46 144.92 8.97333 144.58 9.64C144.24 10.3067 144.073 11.0533 144.073 11.88C144.073 12.7067 144.24 13.4533 144.58 14.12C144.92 14.7867 145.387 15.3 145.98 15.66C146.573 16.02 147.207 16.2 147.88 16.2Z" fill="#1A1A1A"/>
<path d="M167.52 26.88C165.659 26.8837 163.854 26.2999 162.385 25.2156C160.917 24.1312 159.861 22.5998 159.36 20.86L162.48 20.08C162.72 20.96 163.2 21.6533 163.92 22.16C164.64 22.6667 165.48 22.92 166.44 22.92C167.72 22.92 168.713 22.5267 169.42 21.74C170.127 20.9533 170.48 19.88 170.48 18.52V17.28H170.36C169.88 17.92 169.213 18.44 168.36 18.84C167.507 19.24 166.58 19.44 165.58 19.44C164.059 19.4437 162.578 18.9999 161.335 18.1656C160.092 17.3312 159.141 16.1498 158.6 14.78C158.059 13.4102 157.954 11.9146 158.3 10.483C158.646 9.05146 159.428 7.75333 160.541 6.78657C161.653 5.81981 163.046 5.23438 164.502 5.11183C165.958 4.98928 167.408 5.33582 168.668 6.10399C169.928 6.87216 170.937 8.02129 171.56 9.38L171.68 9.68V7.43999H174.64V26.64H171.44V23.6C171.12 24.4133 170.58 25.1067 169.82 25.68C169.06 26.2533 168.18 26.64 167.18 26.84L167.52 26.88ZM166.12 16.2C166.793 16.2 167.427 16.02 168.02 15.66C168.613 15.3 169.08 14.7867 169.42 14.12C169.76 13.4533 169.933 12.7067 169.933 11.88C169.933 11.0533 169.76 10.3067 169.42 9.64C169.08 8.97333 168.613 8.46 168.02 8.1C167.427 7.74 166.793 7.56 166.12 7.56C165.447 7.56 164.813_ 7.74 164.22 8.1C163.627 8.46 163.16 8.97333 162.82 9.64C162.48 10.3067 162.313 11.0533 162.313 11.88C162.313 12.7067 162.48 13.4533 162.82 14.12C163.16 14.7867 163.627 15.3 164.22 15.66C164.813 16.02 165.447 16.2 166.12 16.2Z" fill="#1A1A1A"/>
<path d="M185.04 26.64V7.43999H188.24V11.04H191.44V7.43999H194.64V26.64H191.44V14.16H188.24V26.64H185.04Z" fill="#1A1A1A"/>
<path d="M205.238 26.88C204.038 26.88 202.958 26.5467 202.038 25.88C201.118 25.2133 200.518 24.32 200.238 23.2H203.358C203.478 23.8267 203.878 24.2667 204.558 24.52C205.238 24.7733 205.958 24.9 206.718 24.9C207.798 24.9 208.638 24.6333 209.238 24.1C209.838 23.5667 210.138 22.88 210.138 22.04C210.138 21.2 209.838 20.5333 209.238 20.04C208.638 19.5467 207.758 19.3 206.598 19.3H204.798V16.8H206.478C207.478 16.8 208.238 16.54 208.758 16.02C209.278 15.5 209.538 14.82 209.538 13.98C209.538 13.0267 209.225 12.2467 208.598 11.64C207.972 11.0333 207.138 10.73 206.098 10.73C205.058 10.73 204.212 11.0133 203.558 11.58C202.905 12.1467 202.518 12.8733 202.398 13.76H199.278C199.438 12.16 200.038 10.8867 201.078 9.94C202.118 8.99333 203.498 8.52 205.218 8.52C206.398 8.52 207.412 8.76 208.258 9.24C209.105 9.72 209.758 10.3867 210.218 11.24C210.678 12.0933 210.918 13.02 210.918 14.02C210.918 14.7 210.798 15.3 210.558 15.82C210.318 16.34 209.958 16.7467 209.478 17.04C209.958 17.3333 210.358 17.7267 210.678 18.22C210.998 18.7133 211.218 19.2867 211.338 19.94L211.758 22.28C211.758 23.4133 211.418 24.4467 210.738 25.38C210.058 26.3133 209.078 26.96 207.798 27.32C206.518 27.68 205.278 27.86 204.078 27.86C205.238 26.88 205.238 26.88 205.238 26.88Z" fill="#1A1A1A"/>
<path d="M2.5 10.2114H0.5V11.2114H2.5V10.2114Z" fill="#1A1A1A"/>
</svg>
